<?xml version="1.0" standalone="no"?>
<!DOCTYPE svg PUBLIC "-//W3C//DTD SVG 20010904//EN"
 "http://www.w3.org/TR/2001/REC-SVG-20010904/DTD/svg10.dtd">
<svg version="1.0" xmlns="http://www.w3.org/2000/svg"
 width="24.000000pt" height="24.000000pt" viewBox="0 0 24.000000 24.000000"
 preserveAspectRatio="xMidYMid meet">

<g transform="translate(0.000000,24.000000) scale(0.100000,-0.100000)"
fill="#000000" stroke="none">
<path d="M96 207 c-4 -18 -15 -43 -26 -57 -18 -23 -20 -23 -20 -5 -1 15 -5 12
-20 -15 -26 -47 -25 -82 3 -108 24 -23 43 -30 32 -12 -3 5 3 26 14 47 13 24
20 31 21 20 0 -24 20 -11 20 14 0 10 5 19 10 19 18 0 51 -64 45 -87 -8 -32 21
-19 40 18 21 40 19 68 -10 114 -22 36 -24 38 -25 15 0 -22 -3 -21 -25 16 -33
55 -51 62 -59 21z"/>
</g>
</svg>
