<?xml version="1.0" encoding="iso-8859-1"?>
<!-- Generator: Adobe Illustrator 19.0.0, SVG Export Plug-In . SVG Version: 6.00 Build 0)  -->
<svg version="1.1" id="Capa_1" xmlns="http://www.w3.org/2000/svg" xmlns:xlink="http://www.w3.org/1999/xlink" x="0px" y="0px"
	 viewBox="0 0 512 512" style="enable-background:new 0 0 512 512;" xml:space="preserve">
<g>
	<g>
		<path d="M497,302h-48.58c-6.192-17.458-22.865-30-42.42-30c-19.189,0-35.603,12.078-42.061,29.027
			c-10.075-6.316-21.096-11.701-32.939-16.063V269.42c17.459-6.192,30-22.865,30-42.42c0-24.813-20.187-45-45-45h-15v-34.58
			c17.459-6.192,30-22.865,30-42.42V90h75c24.813,0,45-20.187,45-45S430.813,0,406,0H106C81.187,0,61,20.187,61,45s20.187,45,45,45
			h75v15c0,19.555,12.541,36.228,30,42.42V182h-15c-24.813,0-45,20.187-45,45c0,19.555,12.541,36.228,30,42.42v15.544
			c-11.845,4.362-22.864,9.747-32.939,16.063C141.602,284.078,125.189,272,106,272c-19.555,0-36.228,12.542-42.42,30H15
			c-8.284,0-15,6.716-15,15v150c0,8.284,6.716,15,15,15h48.58c6.192,17.458,22.865,30,42.42,30c19.186,0,35.598-12.074,42.058-29.02
			C177.971,501.729,216.009,512,256,512c39.991,0,78.03-10.271,107.942-29.02C370.402,499.926,386.813,512,406,512
			c19.555,0,36.228-12.542,42.42-30H497c8.284,0,15-6.716,15-15V317C512,308.716,505.284,302,497,302z M61,452H30V332h31V452z
			 M121,467c0,8.271-6.729,15-15,15s-15-6.729-15-15V317c0-8.271,6.729-15,15-15s15,6.729,15,15V467z M301,105
			c0,8.271-6.729,15-15,15h-60c-8.271,0-15-6.729-15-15V90h90V105z M271,150v32h-30v-32H271z M106,60c-8.271,0-15-6.729-15-15
			s6.729-15,15-15h300c8.271,0,15,6.729,15,15s-6.729,15-15,15C398.66,60,140.593,60,106,60z M196,212c12.802,0,107.206,0,120,0
			c8.271,0,15,6.729,15,15s-6.729,15-15,15H196c-8.271,0-15-6.729-15-15S187.729,212,196,212z M361,452h-0.021
			c-3.03,0-5.988,0.917-8.485,2.63C326.763,472.28,292.494,482,256,482c-36.494,0-70.763-9.72-96.493-27.37
			c-2.498-1.713-5.456-2.63-8.485-2.63H151V332h0.022c3.029,0,5.987-0.917,8.485-2.63c11.846-8.126,25.6-14.616,40.88-19.289
			c6.306-1.929,10.613-7.75,10.613-14.344V272h90v23.737c0,6.594,4.307,12.416,10.613,14.344
			c15.279,4.673,29.033,11.163,40.881,19.289c2.498,1.713,5.455,2.63,8.484,2.63H361V452z M421,467c0,8.271-6.729,15-15,15
			s-15-6.729-15-15V317c0-8.271,6.729-15,15-15s15,6.729,15,15V467z M482,452h-31V332h31V452z"/>
	</g>
</g>
<g>
</g>
<g>
</g>
<g>
</g>
<g>
</g>
<g>
</g>
<g>
</g>
<g>
</g>
<g>
</g>
<g>
</g>
<g>
</g>
<g>
</g>
<g>
</g>
<g>
</g>
<g>
</g>
<g>
</g>
</svg>
